<svg width="512" height="512" viewBox="0 0 512 512" fill="none" xmlns="http://www.w3.org/2000/svg">
<rect width="512" height="512" fill="#01605A"/>
<path d="M209.885 264.278C208.739 266.652 207.225 268.739 205.342 270.499C204.442 271.359 203.5 272.096 202.518 272.791C210.95 272.587 219.954 271.727 229.47 269.967C230.289 269.804 231.108 269.64 231.967 269.476C237.616 268.371 243.428 266.938 249.403 265.097C248.012 262.313 247.316 259.203 247.316 255.805C247.316 252.981 247.848 250.28 248.871 247.742C249.936 245.205 251.327 242.994 253.087 241.071C254.847 239.147 256.976 237.673 259.431 236.609C261.887 235.545 264.507 235.013 267.331 235.013C270.155 235.013 272.775 235.545 275.23 236.609C277.686 237.673 279.855 239.147 281.779 241.071C283.662 242.994 285.135 245.205 286.2 247.742C286.445 248.356 286.691 248.97 286.855 249.584C292.175 246.801 297.537 243.69 302.981 240.252C303.472 239.925 304.004 239.597 304.495 239.27C309.735 235.954 315.015 232.271 320.376 228.259L317.02 217.945C316.734 217.249 316.406 216.676 316.079 216.185C315.71 215.694 315.137 215.448 314.278 215.448H298.069C297.333 215.448 296.678 215.694 296.064 216.185C295.409 216.676 295.245 217.249 295.532 217.945L300.075 231.575C298.929 229.897 297.619 228.341 296.187 226.909C292.503 223.184 288.205 220.278 283.294 218.15C278.341 216.062 273.061 214.998 267.454 214.998C261.805 214.998 256.566 216.062 251.696 218.15C246.825 220.278 242.568 223.184 238.925 226.909C236.142 229.692 233.85 232.844 231.967 236.364V181.497C231.967 180.801 231.722 180.228 231.23 179.737C230.739 179.246 230.125 179 229.43 179H214.285C213.426 179 212.812 179.246 212.362 179.737C211.952 180.228 211.748 180.801 211.748 181.497V220.646C205.567 216.881 198.732 214.998 191.283 214.998C185.675 214.998 180.436 216.062 175.606 218.15C170.736 220.278 166.479 223.184 162.836 226.909C160.135 229.692 157.843 232.803 155.96 236.282V217.966C155.96 217.27 155.714 216.697 155.182 216.206C154.691 215.714 154.077 215.469 153.381 215.469H138.278C137.418 215.469 136.764 215.673 136.354 216.165C135.904 216.656 135.699 217.27 135.699 217.966V220.667C129.519 216.901 122.725 215.019 115.275 215.019C109.627 215.019 104.429 216.083 99.5581 218.17C94.7283 220.299 90.4716 223.205 86.8288 226.929C83.1451 230.654 80.2799 235.033 78.1516 239.986C76.0641 244.979 75 250.3 75 255.908C75 261.679 76.0641 267 78.1516 271.952C80.2799 276.864 83.1451 281.162 86.8288 284.886C90.4716 288.611 94.7283 291.558 99.5581 293.645C104.429 295.774 109.627 296.797 115.275 296.797C122.561 296.797 129.396 295.037 135.699 291.558V293.85C135.699 295.528 136.559 296.388 138.278 296.388H153.381C155.1 296.388 155.96 295.528 155.96 293.85V275.595C157.843 279.033 160.135 282.103 162.836 284.886C166.479 288.611 170.736 291.558 175.606 293.645C180.436 295.774 185.675 296.797 191.283 296.797C198.609 296.797 205.403 295.037 211.748 291.558V293.85C211.748 295.528 212.607 296.388 214.285 296.388H229.43C231.108 296.388 231.967 295.528 231.967 293.85V276.823C208.269 279.402 182.339 277.846 155.98 268.637C154.875 268.228 153.77 267.818 152.624 267.368C146.853 265.24 141.082 262.661 135.311 259.714C135.024 261.311 134.533 262.825 133.837 264.298C132.691 266.672 131.218 268.76 129.294 270.52C127.411 272.321 125.242 273.712 122.868 274.777C120.494 275.841 117.956 276.373 115.296 276.373C109.647 276.373 104.899 274.367 101.052 270.315C97.2046 266.304 95.2809 261.474 95.2809 255.826C95.2809 253.002 95.772 250.3 96.8362 247.763C97.9004 245.225 99.292 243.015 101.052 241.091C102.812 239.167 104.899 237.694 107.396 236.63C109.852 235.565 112.472 235.033 115.296 235.033C118.079 235.033 120.739 235.565 123.195 236.63C125.651 237.694 127.82 239.167 129.703 241.091C131.627 243.015 133.1 245.225 134.165 247.763C135.188 250.3 135.72 253.002 135.72 255.826V256.645C135.679 257.668 135.556 258.65 135.311 259.632L135.352 259.673C139.117 261.392 144.847 263.807 152.256 266.099C153.443 266.468 154.711 266.795 155.98 267.205C162.447 268.965 169.938 270.561 178.41 271.584C177.96 271.175 177.51 270.765 177.1 270.315C173.212 266.304 171.288 261.474 171.288 255.826C171.288 253.002 171.82 250.3 172.884 247.763C173.908 245.225 175.34 243.015 177.1 241.091C178.86 239.167 180.948 237.694 183.404 236.63C185.859 235.565 188.52 235.033 191.303 235.033C194.127 235.033 196.747 235.565 199.203 236.63C201.658 237.694 203.869 239.167 205.751 241.091C207.634 243.015 209.108 245.225 210.172 247.763C211.236 250.3 211.768 253.002 211.768 255.826V256.645C211.604 259.325 210.991 261.863 209.885 264.278Z" fill="white"/>
<path d="M435.451 216.206C434.96 215.714 434.346 215.469 433.65 215.469H418.547C417.687 215.469 417.033 215.673 416.623 216.165C416.173 216.656 415.968 217.27 415.968 217.966V220.667C409.788 216.901 402.993 215.019 395.544 215.019C389.896 215.019 384.657 216.083 379.827 218.17C374.956 220.299 370.74 223.205 367.057 226.929C365.338 228.689 363.823 230.572 362.473 232.578L367.343 217.966C367.63 217.27 367.425 216.697 366.811 216.206C366.197 215.714 365.501 215.469 364.806 215.469H348.597C347.861 215.469 347.328 215.714 347.001 216.206C346.633 216.697 346.346 217.27 346.06 217.966L331.284 261.781L325.758 244.877C320.969 247.66 314.953 250.935 307.913 254.332C307.831 254.373 307.708 254.414 307.626 254.455C301.241 257.525 294.078 260.676 286.179 263.623C286.179 263.664 286.138 263.705 286.138 263.746C285.074 266.202 283.6 268.412 281.717 270.295C279.794 272.218 277.624 273.692 275.169 274.756C272.713 275.82 270.093 276.352 267.269 276.352C262.93 276.352 259.124 275.165 255.809 272.751C248.4 274.47 240.664 275.82 232.642 276.68C234.32 279.668 236.408 282.41 238.863 284.866C242.506 288.591 246.763 291.538 251.634 293.625C256.504 295.753 261.743 296.777 267.392 296.777C272.999 296.777 278.279 295.753 283.232 293.625C288.143 291.538 292.441 288.591 296.125 284.866C299.768 281.141 302.674 276.844 304.761 271.932C306.889 266.979 307.954 261.658 307.954 255.887V255.355L320.765 293.809L308.731 330.257C308.035 332.099 308.527 333 310.205 333H326.454C327.15 333 327.846 332.754 328.541 332.263C329.237 331.772 329.728 331.117 330.015 330.257L355.31 254.148C355.269 254.721 355.269 255.294 355.269 255.867C355.269 261.638 356.333 266.959 358.42 271.912C360.549 276.823 363.414 281.121 367.057 284.845C370.74 288.57 374.956 291.517 379.827 293.605C384.657 295.733 389.896 296.756 395.544 296.756C402.83 296.756 409.665 294.996 415.968 291.517V293.809C415.968 295.487 416.828 296.347 418.547 296.347H433.65C435.369 296.347 436.188 295.487 436.188 293.809V217.966C436.188 217.27 435.942 216.697 435.451 216.206ZM415.968 256.624C415.846 259.325 415.191 261.863 414.086 264.278C412.939 266.652 411.425 268.739 409.542 270.499C407.66 272.3 405.49 273.692 403.116 274.756C400.742 275.82 398.205 276.352 395.544 276.352C389.896 276.352 385.148 274.347 381.3 270.295C377.453 266.284 375.488 261.454 375.488 255.805C375.488 252.981 376.02 250.28 377.085 247.742C378.149 245.205 379.54 242.994 381.3 241.071C383.06 239.147 385.148 237.673 387.604 236.609C390.1 235.545 392.72 235.013 395.544 235.013C398.327 235.013 400.988 235.545 403.444 236.609C405.899 237.673 408.069 239.147 409.952 241.071C411.875 242.994 413.349 245.205 414.372 247.742C415.436 250.28 415.968 252.981 415.968 255.805V256.624Z" fill="white"/>
</svg>
