<svg width="16" height="16" viewBox="0 0 16 16" fill="none" xmlns="http://www.w3.org/2000/svg">
<path d="M2.53805 10.1913C2.5759 10.2827 2.63999 10.3608 2.72221 10.4157C2.80444 10.4707 2.90111 10.5 3 10.5L13 10.5C13.0989 10.5 13.1956 10.4707 13.2778 10.4157C13.36 10.3608 13.4241 10.2827 13.4619 10.1913C13.4998 10.1 13.5097 9.99944 13.4904 9.90245C13.4711 9.80545 13.4235 9.71636 13.3535 9.64644L8.35354 4.64645C8.30712 4.60002 8.252 4.56319 8.19134 4.53806C8.13068 4.51293 8.06566 4.5 8 4.5C7.93434 4.5 7.86932 4.51293 7.80866 4.53806C7.748 4.56319 7.69288 4.60002 7.64645 4.64645L2.64645 9.64644C2.57652 9.71637 2.5289 9.80546 2.5096 9.90245C2.49031 9.99944 2.50021 10.1 2.53805 10.1913Z" fill="#50A547"/>
</svg>
