<svg width="18" height="18" viewBox="0 0 18 18" fill="none" xmlns="http://www.w3.org/2000/svg">
<path d="M13.0784 7.02586L9.35686 3.30431C9.28707 3.23452 9.19241 3.19531 9.09371 3.19531C8.99501 3.19531 8.90035 3.23452 8.83056 3.30431L5.10901 7.02586C5.05696 7.07791 5.02151 7.14422 5.00715 7.21641C4.99279 7.2886 5.00016 7.36343 5.02833 7.43143C5.0565 7.49943 5.1042 7.55756 5.1654 7.59845C5.2266 7.63934 5.29855 7.66117 5.37216 7.66117H12.8153C12.8889 7.66117 12.9608 7.63934 13.022 7.59845C13.0832 7.55756 13.1309 7.49943 13.1591 7.43143C13.1873 7.36343 13.1946 7.2886 13.1803 7.21641C13.1659 7.14422 13.1305 7.07791 13.0784 7.02586V7.02586Z" fill="#171A23" fill-opacity="0.3"/>
<path d="M5.10909 10.9741L8.83064 14.6957C8.90043 14.7655 8.99509 14.8047 9.09379 14.8047C9.19249 14.8047 9.28715 14.7655 9.35694 14.6957L13.0785 10.9741C13.1305 10.9221 13.166 10.8558 13.1803 10.7836C13.1947 10.7114 13.1873 10.6366 13.1592 10.5686C13.131 10.5006 13.0833 10.4424 13.0221 10.4016C12.9609 10.3607 12.8889 10.3388 12.8153 10.3388L5.37224 10.3388C5.29863 10.3388 5.22668 10.3607 5.16548 10.4016C5.10427 10.4424 5.05657 10.5006 5.02841 10.5686C5.00024 10.6366 4.99287 10.7114 5.00723 10.7836C5.02159 10.8558 5.05704 10.9221 5.10909 10.9741V10.9741Z" fill="#171A23" fill-opacity="0.3"/>
</svg>
