<svg width="56" height="16" viewBox="0 0 56 16" fill="none" xmlns="http://www.w3.org/2000/svg">
<path d="M3.90366 9.34121C4.9409 11.1883 7.27503 13.3484 9.10576 12.1518C12.8478 9.70623 12.7958 7.3464 10.7857 5.31035C8.45009 2.9447 6.98551 3.34825 5.12268 5.32735C4.6818 5.79575 4.31021 6.10324 3.86765 6.97691C3.5477 7.60859 3.48232 8.59092 3.90366 9.34121ZM7.93426 15.9648C5.24438 15.9817 1.59786 12.3259 0.563478 9.95049C0.562012 9.94715 0.559849 9.94253 0.55971 9.94189C0.55957 9.94125 0.559849 9.94089 0.55971 9.94025C0.55957 9.93961 0.539543 9.89374 0.538636 9.89154C0.0142246 8.61865 -0.107963 7.55184 0.467179 6.15742C1.34504 4.02878 5.76523 -0.917063 8.95517 0.194901C11.2349 0.989638 20.5967 6.80688 11.6125 14.1716C10.4664 15.1112 9.30373 15.956 7.93426 15.9648Z" fill="#53B7D1"/>
<path d="M55.3617 3.2108C55.425 3.20462 55.4855 3.23832 55.5149 3.29592C55.5423 3.35758 55.5317 3.42983 55.4877 3.48053L52.5054 7.99672L55.8781 12.8964C55.9149 12.9424 55.9229 13.0055 55.8989 13.0596C55.872 13.1236 55.8064 13.1615 55.7387 13.1519H53.7739C53.6928 13.156 53.6119 13.1415 53.537 13.1093C53.4728 13.0728 53.4197 13.0187 53.384 12.9531L50.5269 8.52202V12.9102C50.5432 13.0271 50.4636 13.1351 50.3489 13.1517C50.3292 13.1545 50.3095 13.1545 50.29 13.1517H48.6034C48.4891 13.1682 48.3829 13.0871 48.3667 12.9705C48.3638 12.9505 48.3638 12.9303 48.3667 12.9102V3.46609C48.3667 3.29578 48.4456 3.21059 48.6034 3.21059H50.29C50.4478 3.21059 50.5266 3.29578 50.5269 3.46609V7.47057L53.1887 3.38048C53.2611 3.27281 53.3813 3.20888 53.5093 3.21002L55.3617 3.2108ZM44.6443 11.5899C44.9977 11.5899 45.3231 11.5827 45.6202 11.5684C45.9173 11.5542 46.2242 11.5234 46.5399 11.4761C46.6324 11.4541 46.7251 11.5127 46.7467 11.607C46.7518 11.6293 46.7526 11.6524 46.7491 11.6749V12.74C46.7491 12.8631 46.6747 12.9483 46.5258 12.9956C46.162 13.1103 45.7889 13.191 45.411 13.2369C45.0092 13.2919 44.6041 13.3204 44.1985 13.322C43.5469 13.3402 42.8983 13.2292 42.2883 12.9953C41.7929 12.7962 41.3563 12.4705 41.02 12.0498C40.6792 11.6037 40.4372 11.0878 40.3106 10.5372C40.1544 9.87256 40.0796 9.19068 40.0875 8.50716V7.854C40.0796 7.17091 40.152 6.48931 40.3037 5.82392C40.4258 5.27431 40.6637 4.75825 41.0006 4.31146C41.3331 3.88984 41.7677 3.56394 42.2619 3.3659C42.8719 3.13194 43.5205 3.02094 44.1721 3.03914C44.9298 3.04476 45.6818 3.16935 46.4021 3.40842C46.466 3.42471 46.5239 3.45934 46.5692 3.50798C46.5994 3.55413 46.614 3.60895 46.6111 3.66428V4.68679C46.6262 4.78236 46.5628 4.87239 46.469 4.88796C46.4469 4.89173 46.424 4.89087 46.4021 4.88568C46.1418 4.84856 45.8584 4.82012 45.5517 4.80028C45.2453 4.78044 44.934 4.77119 44.6182 4.77248C44.236 4.76152 43.8552 4.8241 43.496 4.95715C43.2015 5.07434 42.9473 5.2768 42.7645 5.53941C42.5643 5.84085 42.429 6.18204 42.3674 6.54051C42.2824 7.01127 42.243 7.48935 42.2491 7.96792V8.40817C42.2427 8.88696 42.2846 9.36526 42.3741 9.8353C42.4391 10.1931 42.5795 10.5323 42.7855 10.8295C42.9755 11.0894 43.2341 11.289 43.5312 11.4046C43.888 11.5364 44.2662 11.599 44.6457 11.5892L44.6443 11.5899ZM38.1221 12.9108C38.1387 13.0274 38.059 13.1354 37.9447 13.1522C37.9249 13.1551 37.905 13.1551 37.8853 13.1522H36.1989C36.0846 13.1689 35.9784 13.0879 35.962 12.9714C35.959 12.9512 35.959 12.9308 35.962 12.9108V3.46666C35.962 3.29635 36.0408 3.21116 36.1989 3.21109H37.8853C38.0436 3.21116 38.1224 3.29635 38.1221 3.46666V12.9108ZM28.2694 3.43829C28.2694 3.28668 28.3386 3.21109 28.4783 3.21109H30.2062C30.3139 3.1953 30.4138 3.27153 30.4293 3.38126C30.432 3.40017 30.432 3.41937 30.4293 3.43829V10.7798C30.4138 10.9934 30.4623 11.2068 30.5687 11.3916C30.7174 11.5466 30.9295 11.6204 31.14 11.5904H34.4419C34.5495 11.5746 34.6495 11.6508 34.6649 11.7606C34.6676 11.7795 34.6676 11.7988 34.6649 11.8176V12.8685C34.6649 13.0484 34.586 13.143 34.428 13.1525C33.9171 13.1997 33.332 13.24 32.6721 13.2732C32.0123 13.3063 31.3292 13.3229 30.6232 13.3229C30.2507 13.3298 29.8789 13.2916 29.5152 13.2092C29.2466 13.1501 28.9955 13.0261 28.7836 12.8476C28.5936 12.6751 28.4559 12.4511 28.3864 12.2017C28.3008 11.8824 28.2608 11.5524 28.2682 11.2216L28.2694 3.43829ZM24.548 11.5902C24.9011 11.5902 25.2265 11.583 25.5236 11.5687C25.8211 11.5545 26.1275 11.5236 26.4436 11.4763C26.536 11.4543 26.6286 11.5127 26.6501 11.6069C26.6554 11.6294 26.6563 11.6525 26.6525 11.6752V12.7403C26.6525 12.8631 26.5784 12.9485 26.4295 12.9958C26.0657 13.1105 25.6927 13.1913 25.3144 13.2372C24.9126 13.2922 24.5078 13.3206 24.1022 13.3223C23.4506 13.3404 22.8019 13.2295 22.192 12.9956C21.6965 12.7964 21.26 12.4708 20.9237 12.0501C20.5823 11.6041 20.3398 11.0881 20.2127 10.5375C20.0565 9.87285 19.9816 9.19096 19.9899 8.50744V7.85422C19.9819 7.17119 20.0544 6.48959 20.2061 5.82421C20.3281 5.27452 20.5658 4.75847 20.9029 4.31168C21.2355 3.89013 21.6701 3.56423 22.1643 3.36618C22.7742 3.13223 23.4229 3.02115 24.0745 3.03943C24.8318 3.04497 25.5839 3.16949 26.3042 3.40871C26.3681 3.42492 26.4263 3.45948 26.4716 3.50826C26.5017 3.55441 26.5164 3.60924 26.5134 3.66456V4.68707C26.5286 4.78271 26.4647 4.87288 26.3709 4.88832C26.3487 4.89194 26.3261 4.89109 26.3042 4.8859C26.0439 4.84885 25.7606 4.8204 25.4541 4.80056C25.1476 4.78072 24.8364 4.77148 24.5203 4.77276C24.1381 4.76181 23.7576 4.82446 23.3984 4.95736C23.1039 5.07463 22.8497 5.27708 22.6668 5.53969C22.4664 5.84099 22.3311 6.18225 22.2698 6.5408C22.1845 7.01155 22.1448 7.48963 22.1512 7.96821V8.40846C22.1448 8.88732 22.1869 9.36554 22.2764 9.83559C22.3414 10.1933 22.4819 10.5325 22.6876 10.8298C22.8777 11.0896 23.1361 11.2891 23.4333 11.4049C23.7904 11.5366 24.1683 11.5993 24.548 11.5895V11.5902Z" fill="#141521"/>
</svg>
