<svg width="24" height="24" viewBox="0 0 24 24" fill="none" xmlns="http://www.w3.org/2000/svg">
<g opacity="0.75">
<path d="M13.125 12C13.125 12.2225 13.059 12.44 12.9354 12.625C12.8118 12.81 12.6361 12.9542 12.4305 13.0394C12.225 13.1245 11.9988 13.1468 11.7805 13.1034C11.5623 13.06 11.3618 12.9528 11.2045 12.7955C11.0472 12.6382 10.94 12.4377 10.8966 12.2195C10.8532 12.0012 10.8755 11.775 10.9606 11.5695C11.0458 11.3639 11.19 11.1882 11.375 11.0646C11.56 10.941 11.7775 10.875 12 10.875C12.2984 10.875 12.5845 10.9935 12.7955 11.2045C13.0065 11.4155 13.125 11.7016 13.125 12ZM12 7.125C12.2225 7.125 12.44 7.05902 12.625 6.9354C12.81 6.81179 12.9542 6.63609 13.0394 6.43052C13.1245 6.22495 13.1468 5.99875 13.1034 5.78052C13.06 5.5623 12.9528 5.36184 12.7955 5.20451C12.6382 5.04717 12.4377 4.94003 12.2195 4.89662C12.0012 4.85321 11.775 4.87549 11.5695 4.96064C11.3639 5.04578 11.1882 5.18998 11.0646 5.37498C10.941 5.55999 10.875 5.7775 10.875 6C10.875 6.29837 10.9935 6.58452 11.2045 6.7955C11.4155 7.00647 11.7016 7.125 12 7.125ZM12 16.875C11.7775 16.875 11.56 16.941 11.375 17.0646C11.19 17.1882 11.0458 17.3639 10.9606 17.5695C10.8755 17.775 10.8532 18.0012 10.8966 18.2195C10.94 18.4377 11.0472 18.6382 11.2045 18.7955C11.3618 18.9528 11.5623 19.06 11.7805 19.1034C11.9988 19.1468 12.225 19.1245 12.4305 19.0394C12.6361 18.9542 12.8118 18.81 12.9354 18.625C13.059 18.44 13.125 18.2225 13.125 18C13.125 17.7016 13.0065 17.4155 12.7955 17.2045C12.5845 16.9935 12.2984 16.875 12 16.875Z" fill="#171A23"/>
</g>
</svg>
