<svg width="18" height="18" viewBox="0 0 18 18" fill="none" xmlns="http://www.w3.org/2000/svg">
<path d="M15.75 12.467V5.53125C15.75 5.43144 15.7234 5.33343 15.6731 5.24727C15.6227 5.16112 15.5503 5.08992 15.4633 5.04099L9.27577 1.56052C9.19158 1.51316 9.0966 1.48828 9 1.48828C8.9034 1.48828 8.80842 1.51316 8.72423 1.56052L2.53673 5.04099C2.44974 5.08992 2.37733 5.16112 2.32694 5.24727C2.27656 5.33343 2.25 5.43144 2.25 5.53125V12.467C2.25 12.5669 2.27656 12.6649 2.32694 12.751C2.37733 12.8372 2.44974 12.9084 2.53673 12.9573L8.72423 16.4378C8.80842 16.4851 8.9034 16.51 9 16.51C9.0966 16.51 9.19158 16.4851 9.27577 16.4378L15.4633 12.9573C15.5503 12.9084 15.6227 12.8372 15.6731 12.751C15.7234 12.6649 15.75 12.5669 15.75 12.467Z" stroke="#F1B030" stroke-width="1.125" stroke-linecap="round" stroke-linejoin="round"/>
<path d="M12.4469 10.7234V7.06718L5.625 3.30469" stroke="#F1B030" stroke-width="1.125" stroke-linecap="round" stroke-linejoin="round"/>
<path d="M15.6724 5.2468L9.0667 8.99959L2.32788 5.24609" stroke="#F1B030" stroke-width="1.125" stroke-linecap="round" stroke-linejoin="round"/>
<path d="M9.06674 9L9.00073 16.5109" stroke="#F1B030" stroke-width="1.125" stroke-linecap="round" stroke-linejoin="round"/>
</svg>
