<svg width="54" height="16" viewBox="0 0 54 16" fill="none" xmlns="http://www.w3.org/2000/svg">
<path fill-rule="evenodd" clip-rule="evenodd" d="M53.6961 6.62725C54.0786 7.18329 54.1171 8.05963 53.7111 8.7388C53.3486 9.34537 51.1791 11.673 50.4731 12.421C49.8611 13.0707 49.0351 13.7213 48.2221 13.7213H31.1994C28.8988 13.7213 28.76 12.929 28.76 11.1375V3.87027C28.76 2.04058 29.2916 1.51172 30.8626 1.51172H48.2221C49.0351 1.51172 49.7586 1.93331 50.5896 2.79172C51.2951 3.52015 53.4026 6.19947 53.6961 6.62725Z" fill="#33CCCC"/>
<path fill-rule="evenodd" clip-rule="evenodd" d="M53.6961 6.62725C54.0786 7.18329 54.1171 8.05963 53.7111 8.7388C53.3486 9.34537 51.1791 11.673 50.4731 12.421C49.8611 13.0707 49.0351 13.7213 48.2221 13.7213H31.1994C28.8988 13.7213 28.76 12.929 28.76 11.1375V3.87027C28.76 2.04058 29.2916 1.51172 30.8626 1.51172H48.2221C49.0351 1.51172 49.7586 1.93331 50.5896 2.79172C51.2951 3.52015 53.4026 6.19947 53.6961 6.62725Z" fill="url(#paint0_linear_3964_13749)"/>
<path fill-rule="evenodd" clip-rule="evenodd" d="M32.6192 4.3223V4.27445C32.6192 4.0408 32.5999 3.80984 32.223 3.80984H30.8004C30.4698 3.80984 30.4489 3.9956 30.4489 4.28421V6.20477C31.1414 5.1988 31.9092 4.73139 32.6192 4.3223ZM42.1628 11.262V11.1589H42.1638V6.53645C42.1638 4.59796 41.3249 3.62882 39.6473 3.62902C39.1823 3.62458 38.7253 3.75149 38.3273 3.9956C37.9279 4.24012 37.5442 4.58167 37.1762 5.02026C36.9953 4.54364 36.7225 4.19262 36.3578 3.9672C35.993 3.74178 35.5204 3.62905 34.94 3.62902C34.2682 3.62902 33.4872 3.8681 32.9336 4.33073C32.8097 4.45675 30.4486 6.3447 30.4486 8.2837V11.2431C30.4486 11.3372 30.4039 11.6943 30.7977 11.6943H32.2788C32.7392 11.6943 32.6942 11.388 32.6942 11.262V6.47565C32.9442 6.13878 33.455 5.30683 34.2847 5.30683C34.6031 5.30683 34.8324 5.41631 34.9726 5.63527C35.1128 5.85422 35.1832 6.22134 35.1838 6.73663V10.475H35.182V11.2432C35.182 11.3373 35.1373 11.6944 35.5311 11.6944H36.9932C37.4539 11.6944 37.409 11.3881 37.409 11.2621V11.159H37.4107V6.47585C37.6785 6.13899 38.2122 5.30704 39.0007 5.30704C39.3251 5.30704 39.559 5.41652 39.7026 5.63547C39.8461 5.85443 39.9178 6.22154 39.9176 6.73683V10.4752H39.9161V11.2434C39.9161 11.3375 39.8716 11.6946 40.2656 11.6946H41.7471C42.2078 11.6944 42.1628 11.388 42.1628 11.262ZM50.3193 9.38266C49.7928 10.8219 48.5313 11.6262 46.9683 11.6262C44.7043 11.6262 43.2088 10.059 43.2088 7.70841C43.2088 5.38617 44.7613 3.70292 46.8978 3.70292C49.0113 3.70292 50.4288 5.19819 50.5188 7.60682C50.5303 7.91458 50.4418 8.18648 50.0633 8.18648H45.2593C45.2878 9.47805 45.9008 10.1747 46.9828 10.1747C47.6428 10.1747 48.0338 9.88567 48.3743 9.31917C48.5223 9.07267 48.8258 9.08638 48.8258 9.08638H50.0633C50.2653 9.08623 50.3548 9.28676 50.3193 9.38251V9.38266ZM46.8978 5.19727C45.9998 5.19727 45.3733 5.8357 45.2593 6.88108H48.4783C48.3928 5.9667 47.9083 5.19727 46.8978 5.19727Z" fill="white"/>
<path fill-rule="evenodd" clip-rule="evenodd" d="M8.8421 1.57875C8.6518 1.27069 8.40495 1.00271 8.115 0.789415C7.82505 0.582466 7.50665 0.420203 7.17 0.307891C6.7961 0.184169 6.4099 0.102661 6.01845 0.0648435C5.5706 0.020104 5.12085 -0.00151081 4.67089 8.19925e-05H0.727385C0.372784 8.19925e-05 0.00108355 0.236679 0.00108355 0.68285V7.17887C0.500635 8.26154 1.47373 9.41095 2.58009 9.96028V8.67195C2.58009 7.99213 3.08404 7.84025 3.29248 7.84025H4.45849C6.0646 7.84025 7.29045 7.4976 8.13605 6.81234C8.98165 6.12805 9.4044 5.11162 9.4044 3.76303C9.4068 3.37336 9.3623 2.98485 9.27195 2.60615C9.1821 2.24306 9.03705 1.89643 8.8421 1.57875ZM6.5441 4.91493C6.40795 5.155 6.20485 5.34872 5.9605 5.47175C5.69565 5.6001 5.40955 5.67711 5.1169 5.69879C4.79818 5.72765 4.46907 5.74212 4.12954 5.74217H3.02149C2.75043 5.74217 2.58009 5.51802 2.58009 5.18735V2.53149C2.58009 2.23363 2.77123 2.10868 3.00044 2.10868H4.12954C4.49733 2.10868 4.84225 2.11946 5.1643 2.14103C5.45415 2.15446 5.7388 2.22428 6.0028 2.3467C6.2381 2.46049 6.43285 2.64564 6.5602 2.87663C6.6944 3.11417 6.7615 3.44941 6.7616 3.88234C6.7616 4.32191 6.6891 4.66611 6.5441 4.91493ZM2.58009 10.3801C1.36328 9.88617 0.547535 9.29697 0.00108355 8.71284V11.8488C0.00108355 11.8488 -0.0439168 12.3603 0.446083 12.3603H2.16654C2.63848 12.3603 2.58029 11.8488 2.58029 11.8488V10.3801H2.58009ZM26.9622 3.41743H25.4182C25.1044 3.41743 24.8976 3.55142 24.7732 3.902C24.6488 4.25258 23.0122 8.88305 23.0122 8.88305C23.0122 8.88305 21.4466 4.34822 21.3234 3.99709C21.2002 3.64595 20.9979 3.41743 20.6334 3.41743H19.2147C18.7141 3.41743 18.7141 3.81682 18.7762 3.97519C18.8265 4.10319 20.7694 9.51304 21.5095 11.5739C21.684 12.0605 21.7529 12.2069 21.7583 12.3872C21.7637 12.5675 21.5833 12.9459 21.4586 13.1631C21.4014 13.2622 21.3356 13.3561 21.2622 13.4435C22.7129 13.0023 24.3849 11.4011 25.2495 9.66659C26.1045 7.24927 27.2321 4.05601 27.281 3.89265C27.3596 3.62807 27.3588 3.41743 26.9622 3.41743ZM20.1443 13.9035C20.0103 13.9011 19.8764 13.8913 19.7435 13.8741C19.5807 13.8522 19.2762 13.8831 19.2762 14.154V15.3651C19.2762 15.8274 19.4937 15.8582 19.6135 15.8856C19.9738 15.9619 20.3413 15.9979 20.7093 15.9931C21.1971 15.9931 21.6215 15.903 21.9826 15.7227C22.3472 15.5394 22.6721 15.2839 22.9382 14.9712C23.2315 14.6231 23.4794 14.2379 23.6757 13.8253C23.8913 13.382 24.0982 12.8936 24.2964 12.3602C24.2964 12.3602 24.3814 12.1191 24.5215 11.7242C24.0956 12.161 22.0882 14.0947 20.1443 13.9035ZM17.8256 4.85514C17.7417 4.65272 17.6273 4.46486 17.4863 4.29839C17.3459 4.1386 17.1852 3.99853 17.0083 3.88189C16.8174 3.75584 16.615 3.64899 16.4038 3.56285C16.1881 3.47729 15.9663 3.40868 15.7403 3.35764C15.4833 3.30048 15.2226 3.26254 14.9603 3.24412C14.6769 3.22269 14.3585 3.21188 14.0048 3.21171C11.6657 3.21171 10.3338 3.96273 10.0091 5.46479C9.90345 5.93087 10.3573 5.95825 10.3573 5.95825H11.7963C12.1719 5.95825 12.1558 5.83528 12.338 5.49018C12.4037 5.3024 12.5219 5.13813 12.6781 5.01753C12.9542 4.80142 13.3681 4.69335 13.9198 4.69331C14.4506 4.69331 14.8362 4.79773 15.0767 5.00656C15.3172 5.21539 15.4586 5.5326 15.5013 5.95825C15.5013 6.45181 15.3497 6.78111 14.7624 6.78111C13.3305 6.72828 11.7919 6.89285 10.9253 7.39759C10.0587 7.90232 9.5688 8.88909 9.5688 9.9488C9.5688 10.3811 9.64485 10.7595 9.79705 11.0842C9.9445 11.4026 10.1625 11.682 10.434 11.9005C10.722 12.1287 11.0522 12.296 11.4049 12.3925C11.8059 12.5042 12.2201 12.5589 12.6358 12.5551C13.2586 12.5551 13.8088 12.4757 14.2865 12.3171C14.764 12.1587 15.503 11.6364 15.5971 11.5602V11.8386C15.5971 12.1145 15.6797 12.3605 16.0038 12.3605H17.6771C18.0158 12.3605 18.0911 12.1145 18.0911 11.8117V6.57483C18.094 6.2493 18.0728 5.92401 18.0275 5.60173C17.9916 5.34517 17.9237 5.0943 17.8256 4.85514ZM15.5438 9.98969C15.5438 9.98969 15.1117 10.9015 13.5696 10.9015C13.1453 10.9015 12.8004 10.8042 12.5349 10.6097C12.2693 10.4151 12.1365 10.1123 12.1368 9.70128C12.1368 9.16744 12.3526 8.7906 12.7844 8.57082C13.2158 8.35119 14.0794 8.22573 14.7266 8.24112C15.3737 8.25651 15.5438 8.67195 15.5438 8.95878V9.98989V9.98969Z" fill="#333333"/>
<defs>
<linearGradient id="paint0_linear_3964_13749" x1="62.3392" y1="5.03705" x2="58.9314" y2="25.2979" gradientUnits="userSpaceOnUse">
<stop offset="0.47231" stop-color="#00CCCC"/>
<stop offset="1" stop-color="#3399FF"/>
</linearGradient>
</defs>
</svg>
