<svg width="28" height="28" viewBox="0 0 28 28" fill="none" xmlns="http://www.w3.org/2000/svg">
<g opacity="0.6">
<path d="M5.72024 10.0186C5.91711 9.60299 6.1468 9.20924 6.4093 8.82643L6.36555 5.98268C6.36555 5.72018 6.47493 5.46862 6.68274 5.29362C7.69993 4.44049 8.8593 3.75143 10.139 3.29205C10.3906 3.20455 10.664 3.22643 10.8827 3.36862L13.3218 4.83424C13.7812 4.80143 14.2406 4.80143 14.6999 4.83424L17.139 3.36862C17.3687 3.23737 17.6421 3.20455 17.8937 3.29205C19.1406 3.74049 20.3109 4.40768 21.3499 5.28268C21.5468 5.44674 21.6671 5.70924 21.6562 5.97174L21.6124 8.81549C21.8749 9.1983 22.1046 9.59205 22.3015 10.0077L24.7843 11.3858C25.014 11.5171 25.1781 11.7358 25.2218 11.9983C25.4515 13.2999 25.4624 14.6561 25.2218 15.9796C25.1781 16.2421 25.014 16.4608 24.7843 16.5921L22.3015 17.9702C22.1046 18.3858 21.8749 18.7796 21.6124 19.1624L21.6562 22.0061C21.6562 22.2686 21.5468 22.5202 21.339 22.6952C20.3218 23.5483 19.1624 24.2374 17.8827 24.6967C17.6312 24.7842 17.3577 24.7624 17.139 24.6202L14.6999 23.1546C14.2406 23.1874 13.7812 23.1874 13.3218 23.1546L10.8827 24.6202C10.6531 24.7514 10.3796 24.7842 10.1281 24.6967C8.88118 24.2483 7.71086 23.5811 6.6718 22.7061C6.47493 22.5421 6.35461 22.2796 6.36555 22.0171L6.4093 19.1733C6.1468 18.7905 5.91711 18.3967 5.72024 17.9811L3.23743 16.603C3.00774 16.4717 2.84368 16.253 2.79993 15.9905C2.57024 14.6889 2.5593 13.3327 2.79993 12.0092C2.84368 11.7467 3.00774 11.528 3.23743 11.3967L5.72024 10.0186Z" stroke="#171A23" stroke-width="1.75" stroke-miterlimit="10" stroke-linecap="round" stroke-linejoin="round"/>
<path d="M14 19.25C16.8995 19.25 19.25 16.8995 19.25 14C19.25 11.1005 16.8995 8.75 14 8.75C11.1005 8.75 8.75 11.1005 8.75 14C8.75 16.8995 11.1005 19.25 14 19.25Z" stroke="#171A23" stroke-width="1.75" stroke-miterlimit="10" stroke-linecap="round" stroke-linejoin="round"/>
</g>
</svg>
