<svg width="28" height="28" viewBox="0 0 28 28" fill="none" xmlns="http://www.w3.org/2000/svg">
<g opacity="0.6">
<path d="M23.625 5.25H4.375C3.89175 5.25 3.5 5.64175 3.5 6.125V21.875C3.5 22.3582 3.89175 22.75 4.375 22.75H23.625C24.1082 22.75 24.5 22.3582 24.5 21.875V6.125C24.5 5.64175 24.1082 5.25 23.625 5.25Z" stroke="#171A23" stroke-width="1.75" stroke-linecap="round" stroke-linejoin="round"/>
<path d="M3.5 8.75H24.5" stroke="#171A23" stroke-width="1.75" stroke-linecap="round" stroke-linejoin="round"/>
<path d="M18.375 12.25C18.375 13.4103 17.9141 14.5231 17.0936 15.3436C16.2731 16.1641 15.1603 16.625 14 16.625C12.8397 16.625 11.7269 16.1641 10.9064 15.3436C10.0859 14.5231 9.625 13.4103 9.625 12.25" stroke="#171A23" stroke-width="1.75" stroke-linecap="round" stroke-linejoin="round"/>
</g>
</svg>
