<svg width="40" height="40" viewBox="0 0 40 40" fill="none" xmlns="http://www.w3.org/2000/svg">
<path d="M35 40H5C2.36 40 0 37.64 0 35V5C0 2.36 2.36 0 5 0H35C37.64 0 40 2.36 40 5V35C40 37.64 37.64 40 35 40Z" fill="#01605A"/>
<path d="M16.2503 6.66797H19.167V19.5846H16.2503V19.168C15.5618 19.6402 14.6069 20.0013 13.7503 20.0013C11.2052 20.0013 9.16699 17.7717 9.16699 15.0013C9.16699 12.2309 11.2011 10.0013 13.7503 10.0013C14.6069 10.0013 15.5577 10.3624 16.2503 10.8346V6.66797ZM16.2503 13.7513C15.8733 13.0429 14.917 12.918 14.167 12.918C13.0604 12.918 12.5003 13.7995 12.5003 15.0013C12.5003 16.2031 13.0604 17.0846 14.167 17.0846C14.917 17.0846 15.8733 16.522 16.2503 15.8346V13.7513Z" fill="white"/>
<path d="M30.417 15.002C30.417 17.7578 28.1729 20.002 25.417 20.002C22.6611 20.002 20.417 17.7578 20.417 15.002C20.417 12.2461 22.6611 10.002 25.417 10.002C28.1771 10.002 30.417 12.2461 30.417 15.002ZM27.0837 15.002C27.0837 13.9323 26.3818 12.9186 25.417 12.9186C24.4564 12.9186 23.7503 13.9365 23.7503 15.002C23.7503 16.0716 24.4522 17.0853 25.417 17.0853C26.3818 17.0853 27.0837 16.0716 27.0837 15.002Z" fill="white"/>
<path d="M26.667 29.5853L27.917 33.3353L32.0837 25.4186L24.167 20.8353L25.417 25.002C17.9827 26.6099 10.8023 24.4727 7.91699 20.002C7.92116 20.8122 8.10016 21.7125 8.33366 22.502C10.1141 28.4768 18.1027 31.4384 26.667 29.5853Z" fill="white"/>
</svg>
