<svg width="12" height="12" viewBox="0 0 12 12" fill="none" xmlns="http://www.w3.org/2000/svg">
<path d="M11.2109 4.56628C11.1641 4.41929 11.0741 4.28983 10.9526 4.19477C10.8311 4.09972 10.6837 4.0435 10.5298 4.03345L7.74586 3.83862L6.71314 1.23816C6.65726 1.09439 6.55924 0.970863 6.43195 0.883755C6.30465 0.796648 6.15401 0.750026 5.99976 0.75H5.99903C5.84502 0.750275 5.69468 0.797015 5.56767 0.88411C5.44065 0.971204 5.34287 1.0946 5.28712 1.23816L4.23902 3.85364L1.47047 4.03345C1.31653 4.0435 1.16919 4.09972 1.04768 4.19477C0.926173 4.28982 0.836135 4.41929 0.789315 4.56628C0.739922 4.71536 0.736562 4.87586 0.779672 5.02688C0.822782 5.17789 0.910364 5.31243 1.03101 5.41296L3.1609 7.21326L2.52735 9.70532C2.48368 9.87319 2.49171 10.0503 2.55039 10.2135C2.60907 10.3768 2.71566 10.5185 2.85621 10.6201C2.99191 10.7188 3.15418 10.7744 3.32191 10.7797C3.48964 10.7849 3.65506 10.7395 3.79664 10.6494L5.9939 9.25745C5.99683 9.25525 5.99976 9.25379 6.00636 9.25745L8.37061 10.7553C8.49897 10.8373 8.64908 10.8786 8.80132 10.8739C8.95356 10.8692 9.10084 10.8187 9.22388 10.7289C9.35124 10.6368 9.44783 10.5085 9.50102 10.3606C9.55421 10.2127 9.56151 10.0522 9.52198 9.90015L8.84888 7.17773L10.9692 5.41296C11.0899 5.31243 11.1775 5.17789 11.2206 5.02688C11.2637 4.87586 11.2603 4.71536 11.2109 4.56628Z" fill="#F1B030"/>
</svg>
