<svg width="18" height="18" viewBox="0 0 18 18" fill="none" xmlns="http://www.w3.org/2000/svg">
<path d="M16.875 8.4375H12.375V5.625H15.3692C15.4816 5.625 15.5914 5.65869 15.6845 5.72171C15.7776 5.78474 15.8497 5.87421 15.8914 5.97859L16.875 8.4375Z" stroke="#F1B030" stroke-width="1.125" stroke-linecap="round" stroke-linejoin="round"/>
<path d="M1.125 10.125H12.375" stroke="#F1B030" stroke-width="1.125" stroke-linecap="round" stroke-linejoin="round"/>
<path d="M13.2188 15.1875C14.1507 15.1875 14.9062 14.432 14.9062 13.5C14.9062 12.568 14.1507 11.8125 13.2188 11.8125C12.2868 11.8125 11.5312 12.568 11.5312 13.5C11.5312 14.432 12.2868 15.1875 13.2188 15.1875Z" stroke="#F1B030" stroke-width="1.125" stroke-miterlimit="10"/>
<path d="M4.78125 15.1875C5.71323 15.1875 6.46875 14.432 6.46875 13.5C6.46875 12.568 5.71323 11.8125 4.78125 11.8125C3.84927 11.8125 3.09375 12.568 3.09375 13.5C3.09375 14.432 3.84927 15.1875 4.78125 15.1875Z" stroke="#F1B030" stroke-width="1.125" stroke-miterlimit="10"/>
<path d="M11.5312 13.5H6.46875" stroke="#F1B030" stroke-width="1.125" stroke-linecap="round" stroke-linejoin="round"/>
<path d="M3.09375 13.5H1.6875C1.53832 13.5 1.39524 13.4407 1.28975 13.3352C1.18426 13.2298 1.125 13.0867 1.125 12.9375V5.0625C1.125 4.91332 1.18426 4.77024 1.28975 4.66475C1.39524 4.55926 1.53832 4.5 1.6875 4.5H12.375V12.0386" stroke="#F1B030" stroke-width="1.125" stroke-linecap="round" stroke-linejoin="round"/>
<path d="M12.375 12.0386V8.4375H16.875V12.9375C16.875 13.0867 16.8157 13.2298 16.7102 13.3352C16.6048 13.4407 16.4617 13.5 16.3125 13.5H14.9062" stroke="#F1B030" stroke-width="1.125" stroke-linecap="round" stroke-linejoin="round"/>
</svg>
