<svg width="28" height="28" viewBox="0 0 28 28" fill="none" xmlns="http://www.w3.org/2000/svg">
<g opacity="0.6">
<path d="M9.625 17.5C12.7661 17.5 15.3125 14.9536 15.3125 11.8125C15.3125 8.67138 12.7661 6.125 9.625 6.125C6.48388 6.125 3.9375 8.67138 3.9375 11.8125C3.9375 14.9536 6.48388 17.5 9.625 17.5Z" stroke="#171A23" stroke-width="1.75" stroke-miterlimit="10"/>
<path d="M16.9983 6.33621C17.7806 6.1158 18.601 6.06559 19.4043 6.18896C20.2076 6.31233 20.9752 6.60641 21.6552 7.05139C22.3353 7.49638 22.9122 8.08193 23.3469 8.76862C23.7816 9.45531 24.0641 10.2272 24.1754 11.0323C24.2867 11.8373 24.2242 12.6569 23.9921 13.4358C23.76 14.2147 23.3636 14.9347 22.8298 15.5475C22.2959 16.1604 21.637 16.6516 20.8972 16.9883C20.1575 17.325 19.3543 17.4993 18.5415 17.4993" stroke="#171A23" stroke-width="1.75" stroke-linecap="round" stroke-linejoin="round"/>
<path d="M1.74951 21.5903C2.63778 20.3268 3.81702 19.2955 5.18766 18.5836C6.5583 17.8717 8.08011 17.5001 9.6246 17.5C11.1691 17.4999 12.6909 17.8715 14.0616 18.5833C15.4323 19.2951 16.6116 20.3262 17.5 21.5897" stroke="#171A23" stroke-width="1.75" stroke-linecap="round" stroke-linejoin="round"/>
<path d="M18.5415 17.5C20.0861 17.4989 21.6083 17.87 22.9791 18.5819C24.3499 19.2938 25.529 20.3255 26.4165 21.5897" stroke="#171A23" stroke-width="1.75" stroke-linecap="round" stroke-linejoin="round"/>
</g>
</svg>
